<?xml version="1.0" encoding="UTF-8" standalone="no"?>
<!DOCTYPE svg PUBLIC "-//W3C//DTD SVG 1.1//EN" "http://www.w3.org/Graphics/SVG/1.1/DTD/svg11.dtd">
<svg width="100%" height="100%" viewBox="0 0 161 161" version="1.1" xmlns="http://www.w3.org/2000/svg" xmlns:xlink="http://www.w3.org/1999/xlink" xml:space="preserve" xmlns:serif="http://www.serif.com/" style="fill-rule:evenodd;clip-rule:evenodd;stroke-linejoin:round;stroke-miterlimit:2;">
    <g transform="matrix(1,0,0,1,-213.31,0)">
        <g id="Artboard2" transform="matrix(0.703464,0,0,0.85095,209.031,-6.2637)">
            <rect x="6.083" y="7.361" width="227.453" height="188.093" style="fill:none;"/>
            <clipPath id="_clip1">
                <rect x="6.083" y="7.361" width="227.453" height="188.093"/>
            </clipPath>
            <g clip-path="url(#_clip1)">
                <g transform="matrix(0.083842,0,0,0.0693106,36.7645,111.653)">
                    <g>
                        <path d="M32.34,15.43C38.81,9.02 47.98,5.82 56.99,5.6C66.94,5.36 76.79,7.2 86.43,9.49C103.27,13.74 119.61,19.79 135.51,26.74C140.65,28.82 144.54,32.93 148.83,36.29C174.42,58.23 198.89,81.44 223.55,104.41C275.69,153.32 327.28,202.8 379.29,251.85C391.53,263.33 403.71,274.88 416.27,286.01C398.99,289.69 381.95,294.5 365.28,300.34C316.29,254.51 266.99,209 217.42,163.78C203.04,150.74 188.7,137.66 173.99,124.99C165.16,117.16 154.86,111.29 144.79,105.24C130.71,97.09 116.25,89.49 101.06,83.62C94.27,81.11 87.29,78.88 80.05,78.2C63.65,77.73 47.24,78.33 30.87,79.45C28.83,66.98 26.97,54.47 24.97,41.99C23.36,32.69 25.52,22.27 32.34,15.43Z" style="fill:rgb(64,64,64);fill-rule:nonzero;stroke:white;stroke-width:16.95px;"/>
                        <path d="M145.42,26.29C156.15,21.62 167.42,17.67 179.15,16.66C185.16,15.94 190.91,18.32 196.33,20.59C212.21,27.7 226.91,37.1 241.45,46.58C243.79,48.23 246.35,49.63 248.45,51.62C269.77,74.28 291.65,96.41 313.36,118.7C343,148.73 372.57,178.84 402.41,208.68C425.93,231.96 449.59,255.1 472.94,278.56C456.22,278.85 439.66,281.51 423.25,284.46C411.67,274.97 401.01,264.34 389.96,254.22C339.45,206.69 289.41,158.67 238.88,111.16C215.19,88.86 191.43,66.61 167.21,44.88C160.05,38.56 152.92,32.2 145.42,26.29Z" style="fill:rgb(64,64,64);fill-rule:nonzero;stroke:white;stroke-width:16.95px;"/>
                        <path d="M255.23,50.52C263.51,49.71 272,49.91 280.03,52.24C287.19,54.03 292.54,59.49 298.2,63.88C325.77,87.23 351.67,112.45 377.91,137.26C397.25,155.53 416.23,174.19 436.09,191.9C450.2,203.08 462.15,216.64 474.22,229.92C488.15,245.56 501.69,261.54 515.02,277.7C503.48,277.57 491.86,278.55 480.37,278C451,248.6 421.21,219.62 391.85,190.21C352.37,150.33 312.88,110.45 273.84,70.13C267.63,63.6 261.25,57.22 255.23,50.52Z" style="fill:rgb(64,64,64);fill-rule:nonzero;stroke:white;stroke-width:16.95px;"/>
                        <path d="M29.36,85.25C44.51,83.85 59.75,83.46 74.96,83.59C84.41,83.32 93.43,86.67 102.11,90.01C118.4,96.63 133.86,105.12 148.9,114.19C156.41,118.8 163.96,123.46 170.52,129.38C195.52,151.07 219.81,173.56 244.26,195.86C282.76,231.34 321.35,266.74 359.46,302.62C344.54,308.05 329.86,314.67 316.87,323.89C306.18,331.48 298.32,343.15 296.29,356.2C293.65,372.36 297.82,388.69 303.1,403.89C306.34,412.59 309.16,421.66 314.78,429.19C322.76,440.05 333.07,448.98 343.92,456.87C360.35,468.7 378.27,478.42 397.01,486.05C407.94,490.39 419.2,494.18 430.87,495.88C453.16,498.17 475.58,498.87 497.95,500.02C588.29,503.74 678.67,506.16 769.05,508.56C807.68,509.5 846.3,510.57 884.93,511.34C905.1,512.11 925.3,511.93 945.45,512.95C945.47,511.05 945.51,509.16 945.53,507.28C875.58,505.69 805.62,504.03 735.66,502.18C645.1,499.62 554.51,497.33 464.01,492.87C451.67,491.89 439.22,491.75 427,489.62C411.06,486.28 395.89,480.02 381.31,472.89C363.87,464.07 347.07,453.64 332.55,440.48C324.96,433.3 317.53,425.45 313.51,415.65C307.77,401.32 302.42,386.56 301.1,371.07C300.29,360.25 302.38,348.87 308.75,339.9C315.21,330.53 325.23,324.55 335.07,319.29C357.16,307.97 380.96,300.38 404.96,294.29C428.87,288.5 453.31,284.15 477.97,283.91C491.98,283.71 505.99,283.05 520,283.03C537.41,290.04 556.43,291.1 574.96,291.97C585.65,292.05 596.36,292.16 607.03,291.44C662.56,295.59 718.39,295.87 773.93,291.69C817.39,288.18 860.82,281.95 902.79,269.86C919.74,264.91 936.44,258.99 952.51,251.65C1002.57,229.64 1052.4,206.99 1103.49,187.46C1144.95,171.58 1188.04,159.9 1231.94,153.16C1284.1,144.99 1337.13,141.92 1389.87,145.03C1455.75,149.05 1521.83,163.14 1581.06,192.95C1600.31,202.45 1618.22,214.32 1636.28,225.86C1669.33,247.33 1702.13,269.36 1732.54,294.49C1745.66,305.24 1757.79,317.13 1769.31,329.56C1677.93,456.47 1586.49,583.34 1494.88,710.08C1454.49,696.66 1413.61,684.43 1371.9,675.8C1355.44,672.65 1338.78,669.71 1321.96,670.16C1313.13,670.56 1304.61,673.15 1296.04,675.08C1252.54,686.05 1209.38,698.27 1166.19,710.34C1080.05,734.55 994.08,759.37 907.96,783.68C887.05,789.5 866.19,795.5 845.14,800.8C818.55,806.86 791.28,811.6 763.92,809.75C748.19,808.41 732.12,804.95 718.76,796.15C697.2,782.68 676.35,768.11 655.46,753.64C592.83,709.83 530.99,664.91 469.56,619.45C435.54,594.22 401.66,568.8 368.11,542.95C340.18,521.33 312.22,499.71 285.53,476.55C270.22,463.48 257.43,447.84 244.27,432.69C205.84,387.25 168.87,340.61 132.46,293.54C107.6,261.29 83.05,228.79 59.28,195.72C44.09,174.42 28.91,153.05 15.44,130.6C11.54,123.8 7.34,116.98 5.36,109.32C11.56,99.75 19.68,91.32 29.36,85.25Z" style="fill:rgb(64,64,64);fill-rule:nonzero;stroke:white;stroke-width:11.54px;stroke-linecap:round;stroke-linejoin:miter;stroke-miterlimit:1;"/>
                        <path d="M1827.39,327.6C1834.08,324.31 1841.75,323.07 1849.12,324.31C1858.2,325.56 1866.24,330.18 1874.62,333.56C1884.35,337.7 1894.38,341.08 1904.27,344.81C1907.63,346.26 1911.38,347.47 1913.85,350.35C1915.71,353.23 1914.16,356.67 1913.37,359.64C1910.38,367.91 1906.17,375.66 1902.48,383.61C1867.49,455.33 1831.06,526.33 1793.8,596.89C1773.23,635.74 1752.28,674.38 1730.78,712.72C1712.07,745.84 1693.05,778.8 1672.81,811.02C1661.04,829.61 1649.01,848.09 1635.59,865.54C1629.42,873.35 1623.16,881.22 1615.53,887.66C1612.97,889.62 1610.3,891.83 1607.04,892.35C1604.97,892.64 1603.95,890.58 1602.7,889.4C1578.47,863.29 1553.71,837.62 1531.08,810.09C1522.51,799.5 1514.03,788.77 1507.02,777.06C1503.89,771.67 1500.89,766.07 1499.62,759.92C1501.55,757.34 1503.38,754.68 1505.32,752.11L1508.82,747.25C1605.86,613.08 1702.57,478.66 1799.47,344.39C1809.79,340.59 1817.57,332.36 1827.39,327.6Z" style="fill:rgb(64,64,64);fill-rule:nonzero;"/>
                    </g>
                </g>
                <g transform="matrix(1.42154,0,0,1.17516,-461.735,0.979334)">
                    <g transform="matrix(16,0,0,16,368.683,89.2293)">
                        <path d="M0.614,-0.653C0.594,-0.673 0.564,-0.68 0.526,-0.68L0.256,-0.68L0.256,-0.842C0.256,-0.85 0.255,-0.857 0.249,-0.863C0.243,-0.869 0.236,-0.87 0.228,-0.87L0.168,-0.87C0.16,-0.87 0.153,-0.869 0.147,-0.863C0.141,-0.857 0.14,-0.85 0.14,-0.842L0.14,-0.028C0.14,-0.02 0.141,-0.013 0.147,-0.007C0.153,-0.001 0.16,-0 0.168,-0L0.526,-0C0.564,-0 0.594,-0.007 0.614,-0.027C0.634,-0.047 0.641,-0.077 0.641,-0.115L0.641,-0.565C0.641,-0.603 0.634,-0.633 0.614,-0.653ZM0.525,-0.114L0.256,-0.114L0.256,-0.566L0.525,-0.566L0.525,-0.114Z" style="fill:rgb(64,64,64);fill-rule:nonzero;"/>
                    </g>
                    <g transform="matrix(16,0,0,16,380.859,89.2293)">
                        <path d="M0.187,-0.324L0.471,-0.324C0.509,-0.324 0.539,-0.331 0.559,-0.351C0.579,-0.371 0.586,-0.401 0.586,-0.439L0.586,-0.566L0.63,-0.566C0.638,-0.566 0.645,-0.567 0.651,-0.573C0.657,-0.579 0.658,-0.586 0.658,-0.594L0.658,-0.652C0.658,-0.66 0.657,-0.667 0.651,-0.673C0.645,-0.679 0.638,-0.68 0.63,-0.68L0.306,-0.68C0.268,-0.68 0.238,-0.673 0.218,-0.653C0.198,-0.633 0.191,-0.603 0.191,-0.565L0.191,-0.428L0.19,-0.428C0.152,-0.428 0.122,-0.421 0.102,-0.401C0.082,-0.381 0.075,-0.351 0.075,-0.313L0.075,-0.247C0.075,-0.209 0.082,-0.179 0.102,-0.159C0.122,-0.139 0.152,-0.132 0.19,-0.132L0.191,-0.132L0.191,0.015C0.191,0.053 0.198,0.083 0.218,0.103C0.238,0.123 0.268,0.13 0.306,0.13L0.541,0.13C0.579,0.13 0.609,0.123 0.629,0.103C0.649,0.083 0.656,0.053 0.656,0.015L0.656,-0.121C0.656,-0.159 0.649,-0.189 0.629,-0.209C0.609,-0.229 0.579,-0.236 0.541,-0.236L0.187,-0.236L0.187,-0.324ZM0.303,-0.576L0.474,-0.576L0.474,-0.424L0.303,-0.424L0.303,-0.576ZM0.544,0.026L0.303,0.026L0.303,-0.132L0.544,-0.132L0.544,0.026Z" style="fill:rgb(64,64,64);fill-rule:nonzero;"/>
                    </g>
                    <g transform="matrix(16,0,0,16,393.083,89.2293)">
                        <path d="M0.455,-0.673C0.449,-0.679 0.442,-0.68 0.434,-0.68L0.255,-0.68C0.217,-0.68 0.187,-0.673 0.167,-0.653C0.147,-0.633 0.14,-0.603 0.14,-0.565L0.14,-0.028C0.14,-0.02 0.141,-0.013 0.147,-0.007C0.153,-0.001 0.16,-0 0.168,-0L0.228,-0C0.236,-0 0.243,-0.001 0.249,-0.007C0.255,-0.013 0.256,-0.02 0.256,-0.028L0.256,-0.566L0.434,-0.566C0.442,-0.566 0.449,-0.567 0.455,-0.573C0.461,-0.579 0.462,-0.586 0.462,-0.594L0.462,-0.652C0.462,-0.66 0.461,-0.667 0.455,-0.673Z" style="fill:rgb(64,64,64);fill-rule:nonzero;"/>
                    </g>
                    <g transform="matrix(16,0,0,16,401.515,89.2293)">
                        <path d="M0.51,-0.68L0.235,-0.68C0.197,-0.68 0.167,-0.673 0.147,-0.653C0.127,-0.633 0.12,-0.603 0.12,-0.565L0.12,-0.115C0.12,-0.077 0.127,-0.047 0.147,-0.027C0.167,-0.007 0.197,-0 0.235,-0L0.51,-0C0.548,-0 0.578,-0.007 0.598,-0.027C0.618,-0.047 0.625,-0.077 0.625,-0.115L0.625,-0.565C0.625,-0.603 0.618,-0.633 0.598,-0.653C0.578,-0.673 0.548,-0.68 0.51,-0.68ZM0.509,-0.114L0.236,-0.114L0.236,-0.566L0.509,-0.566L0.509,-0.114Z" style="fill:rgb(64,64,64);fill-rule:nonzero;"/>
                    </g>
                    <g transform="matrix(16,0,0,16,413.435,89.2293)">
                        <path d="M0.639,-0.673C0.633,-0.679 0.626,-0.68 0.618,-0.68L0.558,-0.68C0.55,-0.68 0.543,-0.679 0.537,-0.673C0.531,-0.667 0.53,-0.66 0.53,-0.652L0.53,-0.114L0.256,-0.114L0.256,-0.652C0.256,-0.66 0.255,-0.667 0.249,-0.673C0.243,-0.679 0.236,-0.68 0.228,-0.68L0.168,-0.68C0.16,-0.68 0.153,-0.679 0.147,-0.673C0.141,-0.667 0.14,-0.66 0.14,-0.652L0.14,-0.115C0.14,-0.077 0.147,-0.047 0.167,-0.027C0.187,-0.007 0.217,-0 0.255,-0L0.531,-0C0.569,-0 0.599,-0.007 0.619,-0.027C0.639,-0.047 0.646,-0.077 0.646,-0.115L0.646,-0.652C0.646,-0.66 0.645,-0.667 0.639,-0.673Z" style="fill:rgb(64,64,64);fill-rule:nonzero;"/>
                    </g>
                    <g transform="matrix(16,0,0,16,426.011,89.2293)">
                        <path d="M0.614,-0.653C0.594,-0.673 0.564,-0.68 0.526,-0.68L0.168,-0.68C0.16,-0.68 0.153,-0.679 0.147,-0.673C0.141,-0.667 0.14,-0.66 0.14,-0.652L0.14,0.102C0.14,0.11 0.141,0.117 0.147,0.123C0.153,0.129 0.16,0.13 0.168,0.13L0.228,0.13C0.236,0.13 0.243,0.129 0.249,0.123C0.255,0.117 0.256,0.11 0.256,0.102L0.256,-0L0.526,-0C0.564,-0 0.594,-0.007 0.614,-0.027C0.634,-0.047 0.641,-0.077 0.641,-0.115L0.641,-0.565C0.641,-0.603 0.634,-0.633 0.614,-0.653ZM0.525,-0.114L0.256,-0.114L0.256,-0.566L0.525,-0.566L0.525,-0.114Z" style="fill:rgb(64,64,64);fill-rule:nonzero;"/>
                    </g>
                    <g transform="matrix(16,0,0,16,438.187,89.2293)">
                        <path d="M0.565,-0.281C0.573,-0.281 0.58,-0.282 0.586,-0.288C0.592,-0.294 0.593,-0.301 0.593,-0.309L0.593,-0.565C0.593,-0.603 0.586,-0.633 0.566,-0.653C0.546,-0.673 0.516,-0.68 0.478,-0.68L0.235,-0.68C0.197,-0.68 0.167,-0.673 0.147,-0.653C0.127,-0.633 0.12,-0.603 0.12,-0.565L0.12,-0.115C0.12,-0.077 0.127,-0.047 0.147,-0.027C0.167,-0.007 0.197,-0 0.235,-0L0.561,-0C0.569,-0 0.576,-0.001 0.582,-0.007C0.588,-0.013 0.589,-0.02 0.589,-0.028L0.589,-0.084C0.589,-0.092 0.588,-0.099 0.582,-0.105C0.576,-0.111 0.569,-0.112 0.561,-0.112L0.236,-0.112L0.236,-0.281L0.565,-0.281ZM0.477,-0.566L0.477,-0.395L0.236,-0.395L0.236,-0.566L0.477,-0.566Z" style="fill:rgb(64,64,64);fill-rule:nonzero;"/>
                    </g>
                </g>
                <g transform="matrix(1.16617,0,0,0.964053,10.8457,-10.1409)">
                    <g id="レイヤー_5">
                        <g transform="matrix(1,0,0,1,63.8552,30.1109)">
                            <path d="M28.925,63.961C28.925,44.586 44.633,28.878 64.007,28.878" style="fill:none;fill-rule:nonzero;stroke:rgb(29,212,255);stroke-width:6px;stroke-linejoin:miter;stroke-miterlimit:10;"/>
                        </g>
                        <g transform="matrix(1,0,0,1,63.8552,30.1109)">
                            <path d="M22.965,63.958C22.965,41.296 41.338,22.922 64,22.922" style="fill:none;fill-rule:nonzero;stroke:rgb(72,199,116);stroke-width:6px;stroke-linejoin:miter;stroke-miterlimit:10;"/>
                        </g>
                        <g transform="matrix(1,0,0,1,63.8552,30.1109)">
                            <path d="M17.381,63.958C17.381,38.212 38.255,17.338 64,17.338" style="fill:none;fill-rule:nonzero;stroke:rgb(255,221,87);stroke-width:6px;stroke-linejoin:miter;stroke-miterlimit:10;"/>
                        </g>
                        <g transform="matrix(1,0,0,1,63.8552,30.1109)">
                            <path d="M11.548,63.958C11.548,34.989 35.032,11.505 64,11.505" style="fill:none;fill-rule:nonzero;stroke:rgb(255,159,44);stroke-width:6px;stroke-linejoin:miter;stroke-miterlimit:10;"/>
                        </g>
                        <g transform="matrix(1,0,0,1,63.8552,30.1109)">
                            <path d="M5.298,63.958C5.298,31.537 31.58,5.255 64,5.255" style="fill:none;fill-rule:nonzero;stroke:rgb(241,70,104);stroke-width:7px;stroke-linejoin:miter;stroke-miterlimit:10;"/>
                        </g>
                        <g transform="matrix(1,0,0,1,63.8552,30.1109)">
                            <path d="M40.134,64C40.134,50.756 50.871,40.018 64.115,40.018" style="fill:none;fill-rule:nonzero;stroke:rgb(241,70,104);stroke-width:6px;stroke-linejoin:miter;stroke-miterlimit:10;"/>
                        </g>
                        <g transform="matrix(1,0,0,1,63.8552,30.1109)">
                            <path d="M34.322,64C34.322,47.545 47.661,34.206 64.115,34.206" style="fill:none;fill-rule:nonzero;stroke:rgb(85,47,188);stroke-width:6px;stroke-linejoin:miter;stroke-miterlimit:10;"/>
                        </g>
                    </g>
                </g>
            </g>
        </g>
    </g>
</svg>
